<svg version="1.1" id="Layer_1" xmlns="http://www.w3.org/2000/svg" xmlns:xlink="http://www.w3.org/1999/xlink"  fill="#fff" x="0px" y="0px" viewBox="0 0 1125 206.2" style="enable-background:new 0 0 1125 206.2;" xml:space="preserve" class="s-ion-icon">
<style type="text/css">
	.st0{fill:#EB7B31;}
	.st1{fill:#FECC33;}
	.st2{fill:#FE5085;}
	.st3{fill:#FE7BA2;}
	.st4{fill:#FED867;}
	.st5{fill:#FEC000;}
	.st6{fill:#F4943C;}
	.st7{fill:#FE2466;}
	.st8{fill:#FEFEFE;}
	.st9{fill:#BEBEBE;}
</style>
<g>
	<path d="M62.4,0c0.9,0.4,1.8,0.3,2.7,0.5c3.2,0.4,6.4,0.8,9.6,1.2c0.5,0.1,0.4,0.4,0.4,0.7c0,5.1,0,11.1,0,16.2
		c0,0.9-0.5,0.7-1,0.7c-5.2-0.2-10.3-0.5-15.5-0.2c-3,0.2-6.1,0.5-8.9,2c-2.7,1.5-3.9,3.9-3.9,6.7c-0.2,5.5-0.1,10.1-0.1,15.7
		c0,1,0.5,0.8,1.1,0.8c9,0,18,0,27,0c1.2,0,1.3,0.4,1.3,1.4c-0.1,4.6-0.1,11.2,0,15.8c0,1.1-0.2,1.5-1.5,1.5
		c-8.8-0.1-17.7,0-26.5-0.1c-1.1,0-1.4,0.2-1.4,1.4c0,30.6,0,59.3,0.1,89.9c0,1.2-0.2,1.5-1.5,1.5c-5.8-0.1-13.5-0.1-19.3,0
		c-1,0-1.2-0.3-1.2-1.3c0-30.7,0-59.3,0-90c0-1.2-0.2-1.5-1.5-1.5c-6.3,0.1-12.6,0-19,0c-0.3,0-0.6-0.1-0.9,0.1c0-5.6,0-13.2,0-18.8
		c6.8,0,13.7,0,20.5,0.1c0.9,0,0.8-0.4,0.8-1c0-5,0-10.1,0-15.1c0-2.5,0.1-4.9,0.5-7.4C25.3,14.1,30.1,8.6,36,4.9
		c3.5-2.2,7.5-3.3,11.5-4c1.6-0.3,3.2-0.2,4.8-0.7C55.9,0,59.2,0,62.4,0z"></path>
	<path d="M856.9,60.4c0.3-0.3,0.1-0.8,0.1-1.1c0-4.6,0-9.3,0-13.9c0-1,0.2-1.3,1.2-1.3c5.8,0.1,11.7,0.1,17.5,0c1,0,1.2,0.2,1.2,1.2
		c0,28.1,0,56.1,0,84.2c0,6.7,0.1,13.5-0.1,20.2c-0.3,8.6-1.3,17.1-4.6,25.2c-4.3,10.6-11.9,17.9-22.5,22.1
		c-7.3,2.9-14.9,4.2-22.6,4.7c-7.2,0.5-14.4,0.6-21.5,0c-8.7-0.7-17.1-2.3-24.8-6.7c-6-3.5-10.5-8.4-13.3-14.7
		c-1.6-3.4-2.6-7-3.2-10.7c-0.3-2.1-0.3-2.1,1.7-2.1c5.7,0,11.4,0,17,0c0.7,0,1,0.2,1.2,0.8c2.4,9,8.8,13.7,17.5,15.8
		c3,0.7,6,1,9,1.3c4.1,0.3,8.1,0.4,12.2,0.1c7.5-0.4,14.8-2.2,21.2-6.5c3.8-2.5,6.9-5.9,9.1-10c1.8-3.4,2.9-7,3.5-10.8
		c0.3-1.9,0.4-3.8,0.5-5.7c0.1-5.1,0-10.2,0-15.3c0-0.3,0.2-0.8-0.1-1c-0.5-0.2-0.6,0.3-0.8,0.7c-4.6,6.7-10.4,12-17.9,15.4
		c-4.4,2-9.1,3.2-13.9,3.8c-4.3,0.6-8.6,0.5-13,0.4c-2.3-0.1-4.5-0.5-6.8-0.9c-3.7-0.6-7.3-1.7-10.8-2.9c-4.7-1.6-9-3.9-13-6.8
		c-2.5-1.7-4.8-3.7-6.8-5.9c-4-4.3-7.2-9.2-9.6-14.7c-1.8-4.1-3-8.4-3.8-12.8c-1-5.3-1.1-10.6-1-16c0.1-3.7,0.4-7.4,1-11
		c1.1-6,2.9-11.7,5.8-17.1c2.3-4.2,5.1-7.9,8.4-11.3c7.5-7.6,16.7-11.8,26.9-14.1c4.7-1.1,9.5-1.6,14.4-1.5
		c9.4,0.1,18.5,1.6,26.9,6.1c5.5,2.9,10,6.9,13.4,12.1C856.4,60.1,856.5,60.4,856.9,60.4z M818.2,59.5c-0.9,0.1-2.4,0.1-4,0.2
		c-1.2,0.1-2.3,0.3-3.4,0.5c-12,2.2-21.1,8.5-26.2,19.7c-5.4,11.9-5.6,24.1-1.1,36.3c3.8,10.3,11.1,17.1,21.6,20.4
		c7.5,2.4,15.1,2.7,22.7,1.1c12-2.4,20.8-9,25.7-20.4c4.1-9.6,4.5-19.6,2.2-29.7c-2.1-8.8-6.6-16.2-14.1-21.5
		C834.8,61.4,827,59.6,818.2,59.5z"></path>
	<path d="M1056.9,98.5c0,16.8,0.1,33.5,0,50.3c0,8.2-1.1,16.4-3.9,24.2c-2.1,6-5.3,11.3-9.9,15.6c-5,4.7-10.9,7.8-17.4,9.8
		c-5.3,1.6-10.8,2.6-16.3,3.1c-5,0.5-10,0.5-14.9,0.6c-2.7,0.1-5.5-0.1-8.2-0.2c-5-0.3-10-1-14.9-2.4c-5.3-1.5-10.4-3.7-14.8-7.2
		c-4.1-3.2-7.1-7.3-9.3-12c-1.7-3.7-2.6-7.5-3.4-11.5c-0.3-1.4,0.1-1.4,1.2-1.4c5.8,0,11.5,0.1,17.3,0c1.1,0,1.4,0.4,1.7,1.3
		c1,3.6,2.7,6.7,5.4,9.3c3.1,3,6.9,4.7,11,5.8c3.2,0.8,6.5,1.2,9.8,1.5c4.1,0.3,8.1,0.4,12.2,0.1c5.6-0.3,11.1-1.4,16.3-3.7
		c4.1-1.8,7.7-4.4,10.7-7.7c3.1-3.4,5-7.5,6.1-12c0.5-2,0.8-4.1,1-6.2c0.6-6.2,0.1-12.4,0.3-18.6c0-0.4,0.3-0.9-0.2-1.1
		c-0.5-0.2-0.6,0.4-0.8,0.7c-4.4,6.4-9.9,11.5-16.9,14.9c-4.7,2.3-9.8,3.7-15,4.3c-4.3,0.5-8.7,0.6-13,0.4c-4.5-0.3-9-1.1-13.4-2.4
		c-4.1-1.2-8-2.8-11.8-4.8c-2.4-1.3-4.6-2.9-6.9-4.5c-2.3-1.7-4.1-3.7-6.1-5.6c-2.2-2.1-3.8-4.6-5.4-7.2c-2.3-3.7-4.1-7.8-5.4-12
		c-0.9-2.8-1.4-5.6-1.9-8.5c-0.9-5.3-1.1-10.6-0.9-15.9c0.1-2.9,0.4-5.8,0.9-8.7c0.7-4,1.6-7.9,3-11.6c1.7-4.6,4-8.9,6.9-12.8
		c1.8-2.3,3.7-4.6,5.8-6.5c4.8-4.4,10.3-7.7,16.4-10c5.8-2.2,11.8-3.5,18-4c3.4-0.3,6.7-0.4,10-0.2c7.4,0.5,14.6,1.9,21.3,5.3
		c5.9,2.9,10.9,6.9,14.5,12.6c0.2,0.3,0.2,0.9,0.8,0.7c0.5-0.2,0.2-0.7,0.2-1.1c0-4.7,0-9.3,0-14c0-0.9,0.2-1.2,1.1-1.1
		c5.9,0,11.8,0.1,17.6,0c1,0,1.1,0.4,1.1,1.2C1056.9,63.1,1056.9,80.8,1056.9,98.5z M960.5,99.5c0.1,3.8,0.4,7.8,1.4,11.7
		c3,11.5,9.6,20,20.8,24.5c8.1,3.2,16.6,3.7,25.1,2c11.7-2.3,20.5-8.6,25.3-19.6c5.3-12,5.3-24.3,0.5-36.5c-3.9-9.8-11-16.5-21-19.9
		c-7.2-2.5-14.5-2.8-22-1.5c-10,1.7-18.1,6.6-23.7,15.2C962.3,82.6,960.6,90.8,960.5,99.5z"></path>
	<path d="M561.8,59.4c0-9.1,0-18.2,0-27.3c0-9.4,0-18.9,0-28.3c0-1,0.1-1.3,1.3-1.3c5.8,0.1,11.7,0.1,17.5,0c1,0,1.2,0.3,1.2,1.2
		c0,50.2,0,100.4,0,150.6c0,0.9-0.2,1.2-1.2,1.2c-5.9-0.1-11.8,0-17.8,0c-0.9,0-1.1-0.3-1-1.1c0-4,0-8,0-12c0-0.4,0.1-0.8-0.2-1.3
		c-1,1.1-1.9,2.2-2.8,3.3c-2.6,3.2-5.9,5.6-9.5,7.6c-5.6,3.3-11.8,5.3-18.2,6.4c-4.3,0.8-8.6,0.8-12.9,0.6
		c-4.6-0.1-9.1-0.9-13.5-2.2c-6.4-1.8-12.4-4.6-17.8-8.7c-2.3-1.7-4.5-3.6-6.4-5.7c-3.4-3.8-6.4-8-8.7-12.6
		c-2.6-5.1-4.3-10.5-5.4-16.1c-1.1-5.8-1.1-11.7-1-17.7c0.1-4.4,0.7-8.7,1.8-13c1.1-4.5,2.6-8.8,4.8-12.9c1.8-3.5,3.9-6.7,6.5-9.7
		c1.7-2,3.5-3.9,5.5-5.7c4.2-3.7,8.9-6.6,14.1-8.8c4.7-2,9.5-3.3,14.5-4c4.8-0.7,9.7-0.8,14.6-0.4c7.3,0.6,14.2,2.5,20.6,5.9
		c5.4,2.8,10.1,6.6,13.6,11.7c0.1,0.2,0.2,0.3,0.3,0.2C561.8,59.6,561.8,59.5,561.8,59.4z M563.1,100.6c0-5-0.5-9.8-1.9-14.5
		c-3.3-11.3-10.1-19.5-21.2-23.8c-8.1-3.1-16.4-3.5-24.9-1.8c-10.9,2.3-19.2,8.2-24,18.3c-6,12.7-6.1,25.8-1.7,39
		c3.4,10.1,10.1,17.4,20.2,21.1c7.6,2.8,15.5,3.2,23.5,1.8c11-2,19.4-7.7,24.7-17.6C561.6,116,563,108.4,563.1,100.6z"></path>
	<path d="M318.2,121.6c-2.5,6.5-5.8,12.3-10.1,17.5c-5.3,6.4-11.8,11.4-19.3,14.8c-5.1,2.4-10.5,3.9-16,4.7
		c-4.7,0.7-9.4,0.6-14.2,0.4c-5.3-0.2-10.4-1.2-15.5-2.7c-5.4-1.6-10.5-3.9-15.1-7.1c-1.9-1.3-3.6-2.7-5.4-4.2
		c-4.5-3.8-7.9-8.5-10.9-13.5c-1.8-3.1-3.2-6.4-4.3-9.9c-1.3-4.2-2.3-8.5-2.9-12.8c-0.6-4.7-0.6-9.4-0.4-14.1
		c0.2-4.6,1-9.1,2.3-13.5c1.3-4.6,3-9.1,5.4-13.3c1.8-3.2,3.9-6.2,6.4-9c1.6-1.9,3.4-3.6,5.2-5.2c2.3-2,4.8-3.8,7.5-5.3
		c6.5-3.7,13.5-6,20.9-7.1c3.1-0.5,6.1-0.8,9.2-0.8c2.2-0.1,4.4-0.1,6.5,0c6.6,0.2,13,1.6,19.2,4c6.6,2.6,12.5,6.4,17.5,11.5
		c6.1,6.1,10.2,13.4,12.8,21.6c1.4,4.3,2.3,8.7,2.9,13.2c0.4,3.2,0.7,6.5,0.7,9.7c0,1.6,0.1,3.3,0.2,4.9c0,0.8-0.2,1-0.9,0.9
		c-0.3,0-0.6,0-0.8,0c-30.9,0-61.8,0-92.7,0c-1,0-1.3,0.3-1.2,1.2c0.5,3.7,1.3,7.3,2.7,10.8c2.1,5.1,5.2,9.5,9.3,13.2
		c5.4,4.9,11.8,7.8,18.9,9.2c3.3,0.7,6.7,0.9,10.1,0.7c5.1-0.3,10-1.4,14.7-3.5c4.1-1.9,7.7-4.4,10.7-7.7c2.1-2.3,3.8-4.9,5.1-7.8
		c0.2-0.5,0.5-0.8,1.1-0.8C304.5,121.6,311.2,121.6,318.2,121.6z M262.9,89.6c11.8,0,23.7,0,35.5,0c0.3,0,0.6,0,0.8,0
		c0.5,0,0.6-0.1,0.5-0.6c-0.3-1.2-0.5-2.5-0.8-3.7c-2.6-9.9-8-17.8-17.2-22.7c-7.6-4-15.7-5-24.2-3.8C241.4,61,229.1,72.7,226,88.5
		c-0.2,1.1,0.1,1.2,1.1,1.2C239,89.6,251,89.6,262.9,89.6z"></path>
	<path d="M636.8,44.1c7.5,0,14.9,0,22.3,0c0.7,0,0.8,0.4,1,0.9c2.3,5.6,4.6,11.2,6.9,16.8c3.4,8.3,6.7,16.6,10.1,24.9
		c3.4,8.3,6.7,16.7,10.1,25c2.6,6.5,5.3,13,8,19.6c0,0.1,0.1,0.2,0.3,0.4c1.1-2,1.7-4.1,2.6-6c1.2-2.9,2.3-5.9,3.5-8.9
		c1.4-3.4,2.8-6.8,4.1-10.1c2.1-5.2,4.1-10.3,6.2-15.5c1.9-4.8,3.7-9.6,5.6-14.4c1.8-4.6,3.8-9.1,5.6-13.7
		c2.2-5.4,4.3-10.8,6.4-16.2c0.2-0.4,0.4-0.8,0.5-1.3c0.3-0.9,0.8-1.4,2-1.3c6.9,0.1,13.8,0,20.8,0c-0.5,1.8-1.3,3.4-2,5
		c-4.3,10.5-8.7,21-13.1,31.5c-4.6,10.9-9.1,21.8-13.7,32.7c-4.2,10.1-8.4,20.3-12.7,30.5c-3.7,9-7.5,17.9-11.2,26.9
		c-2,4.8-4,9.5-6.5,14c-2.2,4.1-4.8,8-8.3,11.2c-3.3,2.9-7.2,4.6-11.5,5.4c-5.7,1.1-11.4,0.9-17.1,0.8c-2.2-0.1-4.3-0.1-6.5-0.3
		c-0.8-0.1-1.6-0.3-2.5-0.2c-0.8,0-0.5-0.6-0.5-1.1c0-4.5,0-8.9,0-13.4c0-0.4,0-0.7,0-1.1c0-2.6,0.3-2.7,2.9-2.3
		c5.4,0.8,10.7,1.1,16.1,0c2.5-0.5,4.7-1.8,6.5-3.5s3.1-3.9,4.3-6.1c1.6-3.1,3-6.3,4.5-9.5c1.1-2.3,2.1-4.7,3.2-7
		c0.4-0.9-0.4-1.7-0.7-2.5c-1.7-4.2-3.5-8.3-5.3-12.5c-1.5-3.5-3.1-7-4.6-10.5c-1.2-2.8-2.4-5.7-3.6-8.6c-1.2-2.9-2.5-5.7-3.7-8.6
		c-1.5-3.5-3-7-4.5-10.6c-1.3-3-2.5-5.9-3.8-8.9c-1.2-2.8-2.4-5.7-3.6-8.5c-1.2-2.9-2.5-5.8-3.7-8.7c-1.2-2.8-2.5-5.7-3.7-8.5
		c-1.5-3.7-3.1-7.3-4.7-11c-1.5-3.4-2.9-6.9-4.3-10.4C638,47,637.4,45.6,636.8,44.1z"></path>
	<path d="M361,61.1c1.1-1.4,2-2.7,2.9-3.9c1.8-2.5,4.1-4.5,6.3-6.5c2.9-2.6,6.2-4.4,9.7-6c4.2-1.9,8.6-3,13.1-3.7
		c3.3-0.5,6.5-0.8,9.8-0.7c7.8,0.3,15.6,1.2,22.8,4.5c7.5,3.5,13.2,8.8,16.6,16.5c1.6,3.6,2.5,7.4,3.1,11.3
		c0.6,4.6,0.4,9.2,0.5,13.8c0,22.6,0,45.2,0,67.8c0,1-0.2,1.3-1.3,1.3c-5.8-0.1-11.7-0.1-17.5,0c-1,0-1.2-0.3-1.2-1.2
		c0-23.7,0.1-47.4,0-71.1c0-4.1-0.7-8.2-2.6-12c-2.5-5.1-6.6-8.4-11.8-10.4c-3.2-1.2-6.5-1.9-9.9-2.2c-2.7-0.2-5.4-0.6-8.2-0.4
		c-7.7,0.4-14.8,2.5-21,7.4s-9.6,11.4-10.9,19.1c-0.4,2.3-0.5,4.6-0.5,7c0,20.8,0,41.6,0,62.4c0,1.1-0.3,1.4-1.4,1.4
		c-5.8-0.1-11.7,0-17.5,0c-0.8,0-1.1-0.2-1.1-1c0-36.4,0-72.9,0-109.3c0-0.8,0.1-1.1,1-1.1c6,0,11.9,0,17.9,0c0.9,0,1.1,0.2,1.1,1.1
		C361,50.4,361,55.6,361,61.1z"></path>
	<path d="M106.8,64.7c2.3-3.8,4.4-7.3,7.1-10.5c3.7-4.3,7.9-8,13-10.4c4.2-2,8.7-3.1,13.4-3.4c2.6-0.2,5.2,0.1,7.7,0.1
		c1.9,0,3.7,0.5,5.6,0.9c0.7,0.2,0.4,0.7,0.4,1.1c0,3.6,0,7.3,0,10.9c0,3.4,0,8.7,0,12.1c0,1.2-0.5,1.1-1.3,0.8
		c-2.4-0.8-5-1.3-7.5-1.6c-3.9-0.4-7.7-0.5-11.6,0.1c-4.8,0.7-9.3,2.3-13.4,5.1c-6.2,4.2-9.9,10.1-11.9,17.2
		c-1.3,4.5-1.8,9-1.7,13.7c0,18.4,0,34.8,0,53.2c0,1.2-0.3,1.4-1.4,1.4c-5.8-0.1-12.6,0-18.4,0c-0.9,0-1.1-0.2-1.1-1.1
		c0-36.4,0-72.8,0-109.2c0-0.9,0.2-1.2,1.1-1.1c5.9,0,12.8,0,18.8,0c0.9,0,1.1,0.3,1.1,1.1c0,6.1,0,12.2,0,18.3
		C106.8,63.8,106.8,64.1,106.8,64.7z"></path>
	<path d="M625.9,79c0,25,0,50.1,0,75.1c0,1.1-0.2,1.5-1.4,1.4c-5.6-0.1-11.3,0-16.9,0c-1.6,0-1.6,0-1.6-1.7c0-37.1,0-74.1,0-111.2
		c0-12.9,0-25.9,0-38.8c0-1,0.2-1.3,1.3-1.3c5.7,0.1,11.4,0.1,17.2,0c1.2,0,1.5,0.2,1.5,1.5C625.8,29,625.9,54,625.9,79z"></path>
	<path d="M184.5,88.6c0,21.8,0,43.6,0,65.4c0,1.3-0.4,1.5-1.5,1.5c-5.8-0.1-11.5-0.1-17.3,0c-0.9,0-1.2-0.2-1.2-1.2
		c0-36.6,0-73.2,0-109.9c0-1.4,1-2,1.6-2.7c1.9-2.1,3.8-4.2,5.7-6.3c2.5-2.6,4.7-5.4,7.1-8c1.6-1.8,3.2-3.4,4.7-5.3
		c0.1-0.2,0.3-0.4,0.6-0.3s0.1,0.4,0.2,0.6c0,0.3,0,0.6,0,0.8C184.5,45.1,184.5,66.9,184.5,88.6z"></path>
	<path d="M898.5,21.8c2.2,2.4,4.4,4.8,6.6,7.2c1.8,2,3.6,4,5.4,6c2.5,2.7,4.9,5.4,7.4,8.1c0.5,0.5,0.4,1,0.4,1.6
		c0,16.2,0,32.4,0,48.6c0,20.3,0,40.6,0,60.9c0,1-0.2,1.3-1.3,1.3c-5.8-0.1-11.7,0-17.5,0c-0.8,0-1.2-0.1-1.2-1.1
		c0-43.9,0-87.9,0-131.8C898.3,22.4,898.2,22.1,898.5,21.8z"></path>
	<path class="st0" d="M1106.1,137.4c0.8,0,1.6,0.1,2.4,0.1c0.6,0,0.9,0.2,0.9,0.8c0,3.8,0,7.7,0,11.5c0,0.6-0.2,0.7-0.8,0.8
		c-0.8,0-1.8-0.4-2.3,0.2c-0.5,0.5-0.2,1.5-0.2,2.3c0,0.6-0.3,0.7-0.8,0.7c-1.6,0-3.1,0-4.7,0c-0.8,0-1.1,0.2-1.1,1.1
		c0,2.2,0,2.2-2.3,2.2c-1.2,0-2.4,0-3.6,0c-0.6,0-0.9-0.2-0.8-0.8c0-0.8,0.3-1.9-0.1-2.3c-0.6-0.6-1.7-0.2-2.5-0.2
		c-0.6,0-1.3,0-1.9,0c-1.7,0-1.8,0-1.7-1.7c0.1-1.2-0.2-1.7-1.5-1.5c-0.3,0.1-0.6,0-0.8,0c-0.8,0.1-0.9-0.2-0.9-1
		c0-3.7,0-7.4,0-11.1c0-0.8,0.3-1,1-1c0.7,0.1,1.4,0,2.2,0c0.3,0.2,0.7,0.1,1.1,0.1c2.2,0,2.2,0,2.2,2.2c0,0.9,0.4,1,1.1,1
		c3.3,0,6.6,0,9.9,0c2.1,0,2.1,0,2.2-2.1c0-0.8,0.3-1,1-1C1104.7,137.6,1105.4,137.8,1106.1,137.4z"></path>
	<path d="M898.1,3.6c2.2,0,4,0,5.8,0c4.5,0,9,0,13.4,0c0.6,0,0.9,0.1,0.9,0.8c0,6.7,0,13.4,0,20.1c0,0.3,0.2,0.7-0.2,0.8
		c-0.3,0.1-0.3-0.4-0.5-0.6c-0.8-0.9-1.7-1.9-2.5-2.8c-2.9-3.2-5.7-6.4-8.6-9.6c-1.7-1.9-3.3-3.8-5.1-5.6
		C900.2,5.9,899.5,4.7,898.1,3.6z"></path>
	<path d="M184.4,3.6c-6.7,7.4-13.1,14.5-19.8,22c0-0.8,0-1.2,0-1.6c0-6.4,0-12.8,0-19.3c0-0.9,0.2-1.1,1.1-1.1
		C171.8,3.6,178,3.6,184.4,3.6z"></path>
	<path class="st1" d="M1083.3,134.2c-0.2,0-0.5,0-0.7,0c-0.8,0-1.9,0.3-2.4-0.2c-0.6-0.5-0.2-1.5-0.2-2.3c0-0.7-0.3-0.8-0.9-0.8
		c-1.4,0-2.9,0-4.3,0c-0.8,0-1.3-0.2-1.2-1.2c0.1-2,0-2.1-2.1-2c-0.9,0-1.2-0.2-1.1-1.1c0.1-3.6,0-7.3,0-10.9c0-0.8,0.2-1,1-1
		c0.7,0.1,1.5,0.1,2.2-0.2c0.3,0.7,0.2,1.4,0.1,2.1c0,0.9,0.2,1.2,1.2,1.2c2.8-0.1,5.6,0,8.4,0
		C1083.3,123.4,1083.3,128.8,1083.3,134.2z"></path>
	<path class="st2" d="M1119,114.6c0.8,0.5,1.7,0.2,2.6,0.2c0.6,0,0.8,0.2,0.8,0.8c0,3.8,0,7.7,0,11.5c0,0.5-0.1,0.8-0.7,0.7
		c-0.1,0-0.2,0-0.2,0c-0.8,0.1-1.8-0.4-2.3,0.2c-0.4,0.5-0.2,1.5-0.1,2.2c0,0.7-0.3,0.8-0.9,0.8c-1.6,0-3.1,0-4.7,0
		c-0.7,0-1,0.2-1,0.9c0,2.4-0.1,2.4-2.5,2.3c-0.2,0-0.4,0-0.6,0c0-5.4,0-10.8,0-16.2c1.7,0,3.4-0.1,5.2,0c0.9,0,1.2-0.3,1.1-1.2
		c0-0.6-0.3-1.4,0.2-2c0,0.8,0,1.6,0,2.4c0,0.3,0,0.6,0.4,0.7c1.8,0.5,2.6-0.1,2.7-1.8c0.1-1.1-0.3-1.4-1.4-1.3
		c-0.6,0.1-1.2,0-1.8,0C1116.9,114.3,1118,114.8,1119,114.6z"></path>
	<path class="st3" d="M1109.4,118c0,5.4,0,10.8,0,16.2c-1.1,0.4-2.3,0-3.4,0l0,0c0-0.8-0.1-1.6,0-2.4c0-0.8-0.3-0.9-1-0.9
		c-1.8,0-3.7,0-5.5,0l0,0c-0.3-1-0.1-2.1-0.3-3.1c0.3-0.4,0.2-0.8,0.2-1.3c0-4,0-7.9,0-11.9c0.4,0,0.7,0,1.1,0
		c2.7,0,2.3-0.2,2.3,2.3c0,0.8,0.3,1.1,1.1,1.1C1105.8,117.9,1107.6,118,1109.4,118z"></path>
	<path class="st4" d="M1083.3,134.2c0-5.4,0-10.8,0-16.2c1.8,0,3.7,0,5.5,0c0.7,0,0.9-0.2,1-1c0-2.5,0.1-2.5,2.6-2.4
		c0.2,0,0.4,0.1,0.6,0.1c0,4.1,0,8.1,0,12.2c0,0.3-0.1,0.6,0.2,0.9c0,1,0,2.1-0.1,3.1l0,0c-1.1,0-2.2,0.1-3.4,0.1
		c-3.3,0-3.3,0-3.1,3.3h-0.1C1085.4,134.2,1084.4,134.5,1083.3,134.2z"></path>
	<path class="st5" d="M1093,114.7c-0.2,0-0.4-0.1-0.6-0.1c-2.5-0.1-2.6-0.1-2.6,2.4c0,0.7-0.2,1-1,1c-1.8,0-3.7,0-5.5,0
		c-2.8,0-5.6-0.1-8.4,0c-1,0-1.2-0.3-1.2-1.2c0-0.7,0.2-1.4-0.1-2.1c0-0.8,0-1.5,0-2.3c-0.1-0.8,0.3-0.9,1-0.9c1.6,0,3.1,0,4.7,0
		c0.7,0,0.9-0.2,0.9-0.9c0-2.3,0.1-2.3,2.4-2.4c1.1,0,2.3,0.1,3.4,0.1c0.6,0,0.7,0.3,0.7,0.8c0.1,2.3,0.1,2.3,2.5,2.3
		c0.2,0,0.5,0,0.7,0c1,0,2.3-0.3,3,0.2s0.1,1.9,0.3,2.9C1093.1,114.6,1093,114.7,1093,114.7z"></path>
	<path class="st6" d="M1086.5,134.3L1086.5,134.3c1.8,0,3.5-0.1,5.1,0c0.9,0,1.4-0.2,1.3-1.2c-0.1-0.7,0.1-1.4,0.1-2.1l0,0
		c2.2,0,4.3,0,6.5,0l0,0c0,0.8,0,1.5,0,2.3c-0.1,0.8,0.2,1.1,1.1,1.1c1.8,0,3.7,0,5.5,0l0,0c0,1,0,2.1,0,3.1
		c-0.7,0.4-1.4,0.2-2.1,0.2c-0.8,0-1,0.2-1,1c0,2.1-0.1,2.1-2.2,2.1c-3.3,0-6.6,0-9.9,0c-0.7,0-1.1-0.1-1.1-1c0-2.2-0.1-2.1-2.2-2.2
		c-0.4,0-0.7,0.1-1.1-0.1C1086.5,136.4,1086.5,135.3,1086.5,134.3z"></path>
	<path class="st7" d="M1109.4,118c-1.8,0-3.6-0.1-5.4,0c-0.8,0-1.1-0.2-1.1-1.1c0-2.5,0.4-2.3-2.3-2.3c-0.4,0-0.7,0-1.1,0l-0.1-0.1
		c0-0.1,0-0.2,0-0.2c0.1-0.9-0.4-2.1,0.2-2.7s1.8-0.1,2.8-0.2c0.3,0,0.6,0,0.8,0c0.9,0,2,0.3,2.6-0.1s0.2-1.6,0.2-2.4
		c0-0.5,0.2-0.7,0.7-0.7c1.7,0,3.4,0,5.1,0c0.6,0,0.7,0.3,0.7,0.8c0,0.8-0.4,1.8,0.2,2.3s1.6,0.1,2.4,0.2c0.2,0,0.5,0,0.7,0
		c1,0.1,2.4-0.5,3,0.2c0.5,0.6,0.1,1.9,0.2,2.9c-1,0.1-2.1-0.3-3.1,0.2l0,0c-0.5,0.6-0.2,1.3-0.2,2c0,0.9-0.2,1.2-1.1,1.2
		C1112.9,117.9,1111.1,118,1109.4,118z"></path>
	<path class="st8" d="M1099.4,114.6C1099.5,114.6,1099.5,114.6,1099.4,114.6"></path>
	<path class="st8" d="M1093,114.7c0,0,0.1-0.1,0.2-0.1"></path>
	<path class="st8" d="M1093.2,127.8c-0.3-0.2-0.2-0.6-0.2-0.9"></path>
	<path class="st8" d="M1099.5,126.5c0,0.4,0.1,0.9-0.2,1.3"></path>
	<path class="st9" d="M561.8,59.4c0,0.1-0.1,0.2-0.1,0.2c-0.2,0.1-0.3,0-0.3-0.2C561.5,59.4,561.7,59.4,561.8,59.4z"></path>
	<path class="st7" d="M1115.9,114.9c0.6,0,1.2,0,1.8,0c1-0.1,1.4,0.2,1.4,1.3c-0.1,1.8-0.9,2.4-2.7,1.8c-0.4-0.1-0.4-0.4-0.4-0.7
		C1115.9,116.4,1115.9,115.6,1115.9,114.9L1115.9,114.9z"></path>
</g>
</svg>