<svg width="29" height="29" viewBox="0 0 29 29" fill="none" xmlns="http://www.w3.org/2000/svg" class="s-ion-icon">
<path d="M8.70004 5.99383C9.34069 5.99383 9.86004 5.47448 9.86004 4.83383C9.86004 4.19318 9.34069 3.67383 8.70004 3.67383C8.05939 3.67383 7.54004 4.19318 7.54004 4.83383C7.54004 5.47448 8.05939 5.99383 8.70004 5.99383Z" fill="#979797"></path>
<path d="M8.70004 9.86101C9.34069 9.86101 9.86004 9.34167 9.86004 8.70102C9.86004 8.06037 9.34069 7.54102 8.70004 7.54102C8.05939 7.54102 7.54004 8.06037 7.54004 8.70102C7.54004 9.34167 8.05939 9.86101 8.70004 9.86101Z" fill="#979797"></path>
<path d="M8.70004 13.7243C9.34069 13.7243 9.86004 13.2049 9.86004 12.5643C9.86004 11.9236 9.34069 11.4043 8.70004 11.4043C8.05939 11.4043 7.54004 11.9236 7.54004 12.5643C7.54004 13.2049 8.05939 13.7243 8.70004 13.7243Z" fill="#979797"></path>
<path d="M8.70004 17.5915C9.34069 17.5915 9.86004 17.0721 9.86004 16.4315C9.86004 15.7908 9.34069 15.2715 8.70004 15.2715C8.05939 15.2715 7.54004 15.7908 7.54004 16.4315C7.54004 17.0721 8.05939 17.5915 8.70004 17.5915Z" fill="#979797"></path>
<path d="M8.70004 21.4567C9.34069 21.4567 9.86004 20.9374 9.86004 20.2967C9.86004 19.6561 9.34069 19.1367 8.70004 19.1367C8.05939 19.1367 7.54004 19.6561 7.54004 20.2967C7.54004 20.9374 8.05939 21.4567 8.70004 21.4567Z" fill="#979797"></path>
<path d="M8.70004 25.3239C9.34069 25.3239 9.86004 24.8046 9.86004 24.1639C9.86004 23.5233 9.34069 23.0039 8.70004 23.0039C8.05939 23.0039 7.54004 23.5233 7.54004 24.1639C7.54004 24.8046 8.05939 25.3239 8.70004 25.3239Z" fill="#979797"></path>
<path d="M12.5667 5.99383C13.2074 5.99383 13.7267 5.47448 13.7267 4.83383C13.7267 4.19318 13.2074 3.67383 12.5667 3.67383C11.9261 3.67383 11.4067 4.19318 11.4067 4.83383C11.4067 5.47448 11.9261 5.99383 12.5667 5.99383Z" fill="#979797"></path>
<path d="M12.5667 9.86101C13.2074 9.86101 13.7267 9.34167 13.7267 8.70102C13.7267 8.06037 13.2074 7.54102 12.5667 7.54102C11.9261 7.54102 11.4067 8.06037 11.4067 8.70102C11.4067 9.34167 11.9261 9.86101 12.5667 9.86101Z" fill="#979797"></path>
<path d="M12.5667 13.7243C13.2074 13.7243 13.7267 13.2049 13.7267 12.5643C13.7267 11.9236 13.2074 11.4043 12.5667 11.4043C11.9261 11.4043 11.4067 11.9236 11.4067 12.5643C11.4067 13.2049 11.9261 13.7243 12.5667 13.7243Z" fill="#979797"></path>
<path d="M12.5667 17.5915C13.2074 17.5915 13.7267 17.0721 13.7267 16.4315C13.7267 15.7908 13.2074 15.2715 12.5667 15.2715C11.9261 15.2715 11.4067 15.7908 11.4067 16.4315C11.4067 17.0721 11.9261 17.5915 12.5667 17.5915Z" fill="#979797"></path>
<path d="M12.5667 21.4567C13.2074 21.4567 13.7267 20.9374 13.7267 20.2967C13.7267 19.6561 13.2074 19.1367 12.5667 19.1367C11.9261 19.1367 11.4067 19.6561 11.4067 20.2967C11.4067 20.9374 11.9261 21.4567 12.5667 21.4567Z" fill="#979797"></path>
<path d="M12.5667 25.3239C13.2074 25.3239 13.7267 24.8046 13.7267 24.1639C13.7267 23.5233 13.2074 23.0039 12.5667 23.0039C11.9261 23.0039 11.4067 23.5233 11.4067 24.1639C11.4067 24.8046 11.9261 25.3239 12.5667 25.3239Z" fill="#979797"></path>
<path d="M16.4315 5.99383C17.0721 5.99383 17.5915 5.47448 17.5915 4.83383C17.5915 4.19318 17.0721 3.67383 16.4315 3.67383C15.7908 3.67383 15.2715 4.19318 15.2715 4.83383C15.2715 5.47448 15.7908 5.99383 16.4315 5.99383Z" fill="#979797"></path>
<path d="M16.4315 9.86101C17.0721 9.86101 17.5915 9.34167 17.5915 8.70102C17.5915 8.06037 17.0721 7.54102 16.4315 7.54102C15.7908 7.54102 15.2715 8.06037 15.2715 8.70102C15.2715 9.34167 15.7908 9.86101 16.4315 9.86101Z" fill="#979797"></path>
<path d="M16.4315 13.7243C17.0721 13.7243 17.5915 13.2049 17.5915 12.5643C17.5915 11.9236 17.0721 11.4043 16.4315 11.4043C15.7908 11.4043 15.2715 11.9236 15.2715 12.5643C15.2715 13.2049 15.7908 13.7243 16.4315 13.7243Z" fill="#979797"></path>
<path d="M16.4315 17.5915C17.0721 17.5915 17.5915 17.0721 17.5915 16.4315C17.5915 15.7908 17.0721 15.2715 16.4315 15.2715C15.7908 15.2715 15.2715 15.7908 15.2715 16.4315C15.2715 17.0721 15.7908 17.5915 16.4315 17.5915Z" fill="#979797"></path>
<path d="M16.4315 21.4567C17.0721 21.4567 17.5915 20.9374 17.5915 20.2967C17.5915 19.6561 17.0721 19.1367 16.4315 19.1367C15.7908 19.1367 15.2715 19.6561 15.2715 20.2967C15.2715 20.9374 15.7908 21.4567 16.4315 21.4567Z" fill="#979797"></path>
<path d="M16.4315 25.3239C17.0721 25.3239 17.5915 24.8046 17.5915 24.1639C17.5915 23.5233 17.0721 23.0039 16.4315 23.0039C15.7908 23.0039 15.2715 23.5233 15.2715 24.1639C15.2715 24.8046 15.7908 25.3239 16.4315 25.3239Z" fill="#979797"></path>
<path d="M20.2982 5.99383C20.9388 5.99383 21.4582 5.47448 21.4582 4.83383C21.4582 4.19318 20.9388 3.67383 20.2982 3.67383C19.6575 3.67383 19.1382 4.19318 19.1382 4.83383C19.1382 5.47448 19.6575 5.99383 20.2982 5.99383Z" fill="#979797"></path>
<path d="M20.2982 9.86101C20.9388 9.86101 21.4582 9.34167 21.4582 8.70102C21.4582 8.06037 20.9388 7.54102 20.2982 7.54102C19.6575 7.54102 19.1382 8.06037 19.1382 8.70102C19.1382 9.34167 19.6575 9.86101 20.2982 9.86101Z" fill="#979797"></path>
<path d="M20.2982 13.7243C20.9388 13.7243 21.4582 13.2049 21.4582 12.5643C21.4582 11.9236 20.9388 11.4043 20.2982 11.4043C19.6575 11.4043 19.1382 11.9236 19.1382 12.5643C19.1382 13.2049 19.6575 13.7243 20.2982 13.7243Z" fill="#979797"></path>
<path d="M20.2982 17.5915C20.9388 17.5915 21.4582 17.0721 21.4582 16.4315C21.4582 15.7908 20.9388 15.2715 20.2982 15.2715C19.6575 15.2715 19.1382 15.7908 19.1382 16.4315C19.1382 17.0721 19.6575 17.5915 20.2982 17.5915Z" fill="#979797"></path>
<path d="M20.2982 21.4567C20.9388 21.4567 21.4582 20.9374 21.4582 20.2967C21.4582 19.6561 20.9388 19.1367 20.2982 19.1367C19.6575 19.1367 19.1382 19.6561 19.1382 20.2967C19.1382 20.9374 19.6575 21.4567 20.2982 21.4567Z" fill="#979797"></path>
<path d="M20.2982 25.3239C20.9388 25.3239 21.4582 24.8046 21.4582 24.1639C21.4582 23.5233 20.9388 23.0039 20.2982 23.0039C19.6575 23.0039 19.1382 23.5233 19.1382 24.1639C19.1382 24.8046 19.6575 25.3239 20.2982 25.3239Z" fill="#979797"></path>
</svg>